<svg width="40" height="40" viewBox="0 0 40 40" fill="none" xmlns="http://www.w3.org/2000/svg">
<rect width="40" height="40" fill="#FF8800"/>
<path fill-rule="evenodd" clip-rule="evenodd" d="M25.8922 14.0566C25.8922 17.3931 23.1722 20.1131 19.8355 20.1131C16.4628 20.1131 13.7428 17.3931 13.7428 14.0566C13.7428 10.72 16.4628 8 19.8355 8C23.1722 8 25.8922 10.72 25.8922 14.0566ZM22.338 14.0566C22.338 12.6784 21.2137 11.5541 19.8355 11.5541C18.4212 11.5541 17.2969 12.6784 17.3332 14.0566C17.3332 15.4347 18.4575 16.5589 19.8355 16.5589C21.2137 16.5589 22.338 15.4347 22.338 14.0566Z" fill="white"/>
<path d="M25.7834 23.6311C24.6954 24.3201 23.4985 24.7916 22.2655 25.0817L25.7109 28.4183C26.3999 29.1074 26.3999 30.2316 25.7109 30.9208C25.0219 31.6098 23.8975 31.6098 23.2085 30.9208L19.8719 27.5841L16.5354 30.9208C16.1727 31.2471 15.7375 31.4284 15.266 31.4284C14.7946 31.4284 14.3594 31.2834 13.9967 30.9208C13.3076 30.2316 13.3076 29.1074 13.9967 28.4183L17.3695 25.0454C16.1364 24.7553 14.9396 24.2839 13.8516 23.5947C13.0175 23.0871 12.7636 21.9991 13.2351 21.1649C13.7791 20.3308 14.8671 20.1133 15.7012 20.6209C18.1674 22.1804 21.3951 22.1804 23.8612 20.6209C24.6954 20.0769 25.8197 20.3308 26.3274 21.1649C26.8714 21.9991 26.6175 23.1232 25.7834 23.6311Z" fill="white"/>
</svg>
