<svg width="40" height="41" viewBox="0 0 40 41" fill="none" xmlns="http://www.w3.org/2000/svg">
<path d="M40 0.824707H0V40.8247H40V0.824707Z" fill="#0088CC"/>
<path d="M10.1249 20.4601C15.4936 18.121 19.0736 16.579 20.8648 15.8339C25.9792 13.7067 27.0419 13.3372 27.7346 13.3248C27.8869 13.3223 28.2276 13.36 28.4482 13.5391C28.6345 13.6902 28.6858 13.8945 28.7103 14.0378C28.7348 14.1811 28.7654 14.5077 28.7411 14.7628C28.464 17.6748 27.2647 24.7416 26.6546 28.0031C26.3965 29.3832 25.8882 29.8459 25.3961 29.8912C24.3266 29.9896 23.5145 29.1844 22.4787 28.5054C20.8578 27.4429 19.9421 26.7815 18.3688 25.7447C16.5505 24.5465 17.7292 23.888 18.7654 22.8117C19.0366 22.53 23.7487 18.244 23.8399 17.8552C23.8513 17.8066 23.8619 17.6253 23.7542 17.5296C23.6465 17.4339 23.4876 17.4666 23.3729 17.4927C23.2104 17.5296 20.621 19.241 15.6049 22.6271C14.8699 23.1318 14.2042 23.3777 13.6077 23.3648C12.9501 23.3506 11.6853 22.993 10.745 22.6873C9.59166 22.3124 8.67503 22.1142 8.75485 21.4775C8.79642 21.1459 9.2531 20.8068 10.1249 20.4601Z" fill="white"/>
</svg>
