<svg width="40" height="40" viewBox="0 0 40 40" fill="none" xmlns="http://www.w3.org/2000/svg">
<rect width="40" height="40" fill="#0077FF"/>
<path d="M2.5 19.3C2.5 11.3783 2.5 7.42333 4.95 4.95C7.435 2.5 11.39 2.5 19.3 2.5H20.7C28.6217 2.5 32.5767 2.5 35.05 4.95C37.5 7.435 37.5 11.39 37.5 19.3V20.7C37.5 28.6217 37.5 32.5767 35.05 35.05C32.565 37.5 28.61 37.5 20.7 37.5H19.3C11.3783 37.5 7.42333 37.5 4.95 35.05C2.5 32.565 2.5 28.61 2.5 20.7V19.3Z" fill="#0077FF"/>
<path d="M21.12 27.7117C13.14 27.7117 8.58999 22.2517 8.40332 13.1517H12.4167C12.545 19.825 15.485 22.6483 17.8183 23.2317V13.1517H21.5867V18.9033C23.885 18.6583 26.3117 16.0333 27.1283 13.14H30.885C30.5787 14.6377 29.9668 16.0562 29.0876 17.3068C28.2083 18.5574 27.0807 19.6132 25.775 20.4083C27.2321 21.1336 28.5189 22.1595 29.5505 23.4183C30.5821 24.6772 31.3352 26.1405 31.76 27.7117H27.6183C26.7317 24.9467 24.515 22.8 21.5867 22.5083V27.7117H21.1317H21.12Z" fill="white"/>
</svg>
