<svg width="28" height="28" viewBox="0 0 28 28" fill="none" xmlns="http://www.w3.org/2000/svg">
<g clip-path="url(#clip0_182_874)">
<path d="M21.2554 0.255599C21.3367 0.174114 21.4332 0.109464 21.5395 0.0653524C21.6459 0.0212411 21.7598 -0.00146484 21.8749 -0.00146484C21.99 -0.00146484 22.104 0.0212411 22.2103 0.0653524C22.3166 0.109464 22.4131 0.174114 22.4944 0.255599L27.7444 5.5056C27.8259 5.58688 27.8905 5.68344 27.9347 5.78974C27.9788 5.89605 28.0015 6.01001 28.0015 6.1251C28.0015 6.24019 27.9788 6.35416 27.9347 6.46046C27.8905 6.56676 27.8259 6.66332 27.7444 6.7446L10.2444 24.2446C10.1604 24.328 10.0604 24.3935 9.9504 24.4371L1.2004 27.9371C1.04139 28.0008 0.867197 28.0163 0.699414 27.9819C0.53163 27.9475 0.377637 27.8646 0.256526 27.7435C0.135415 27.6224 0.0525111 27.4684 0.018093 27.3006C-0.016325 27.1328 -0.000743899 26.9586 0.0629048 26.7996L3.5629 18.0496C3.60653 17.9396 3.67202 17.8396 3.7554 17.7556L21.2554 0.255599ZM19.6122 4.3751L23.6249 8.38785L25.8877 6.1251L21.8749 2.11235L19.6122 4.3751ZM22.3877 9.6251L18.3749 5.61235L6.99991 16.9874V17.5001H7.8749C8.10697 17.5001 8.32953 17.5923 8.49362 17.7564C8.65772 17.9205 8.7499 18.143 8.7499 18.3751V19.2501H9.6249C9.85697 19.2501 10.0795 19.3423 10.2436 19.5064C10.4077 19.6705 10.4999 19.893 10.4999 20.1251V21.0001H11.0127L22.3877 9.6251ZM5.3059 18.6814L5.12041 18.8669L2.4464 25.5536L9.13315 22.8796L9.31865 22.6941C9.15174 22.6317 9.00784 22.5199 8.90621 22.3735C8.80457 22.2272 8.75004 22.0533 8.7499 21.8751V21.0001H7.8749C7.64284 21.0001 7.42028 20.9079 7.25619 20.7438C7.09209 20.5797 6.99991 20.3572 6.99991 20.1251V19.2501H6.12491C5.94672 19.25 5.77282 19.1954 5.62646 19.0938C5.48011 18.9922 5.36827 18.8483 5.3059 18.6814Z" fill="#212529"/>
</g>
<defs>
<clipPath id="clip0_182_874">
<rect width="28" height="28" fill="white"/>
</clipPath>
</defs>
</svg>
